<mxfile host="app.diagrams.net" modified="2024-04-21T09:51:35.756Z" agent="Mozilla/5.0 (Windows NT 10.0; Win64; x64) AppleWebKit/537.36 (KHTML, like Gecko) Chrome/123.0.0.0 Safari/537.36" etag="i31xb04zw8SHzRVcys8e" version="24.2.7" type="github">
  <diagram name="第 1 页" id="HCIyUdrNJA2hayCkqiw1">
    <mxGraphModel dx="6252" dy="1691" grid="1" gridSize="10" guides="1" tooltips="1" connect="1" arrows="1" fold="1" page="1" pageScale="1" pageWidth="827" pageHeight="1169" math="0" shadow="0">
      <root>
        <mxCell id="0" />
        <mxCell id="1" parent="0" />
        <mxCell id="vg9e9PBJI-c-S1dAH_wk-1" value="&lt;h1 style=&quot;margin-top: 0px;&quot;&gt;&lt;font style=&quot;font-size: 11px;&quot;&gt;網站資訊分析&lt;/font&gt;&lt;/h1&gt;&lt;p style=&quot;font-size: 10px;&quot;&gt;&lt;br&gt;&lt;/p&gt;" style="text;html=1;whiteSpace=wrap;overflow=hidden;rounded=0;labelBackgroundColor=none;fontColor=#1A1A1A;spacing=0;" vertex="1" parent="1">
          <mxGeometry x="-4945.5" y="-143.5" width="167" height="80" as="geometry" />
        </mxCell>
        <mxCell id="vg9e9PBJI-c-S1dAH_wk-2" value="&lt;font color=&quot;#666666&quot;&gt;&lt;font style=&quot;forced-color-adjust: none; font-family: Helvetica; font-size: 10px; font-style: normal; font-variant-ligatures: normal; font-variant-caps: normal; font-weight: 400; letter-spacing: normal; orphans: 2; text-align: left; text-indent: 0px; text-transform: none; widows: 2; word-spacing: 0px; -webkit-text-stroke-width: 0px; white-space: normal; background-color: rgb(255, 255, 255); text-decoration-thickness: initial; text-decoration-style: initial; text-decoration-color: initial;&quot;&gt;全新網站:&amp;nbsp;&lt;/font&gt;&lt;span style=&quot;font-family: Helvetica; font-size: 10px; font-style: normal; font-variant-ligatures: normal; font-variant-caps: normal; font-weight: 400; letter-spacing: normal; orphans: 2; text-align: left; text-indent: 0px; text-transform: none; widows: 2; word-spacing: 0px; -webkit-text-stroke-width: 0px; white-space: normal; background-color: rgb(255, 255, 255); text-decoration-thickness: initial; text-decoration-style: initial; text-decoration-color: initial; float: none; display: inline !important;&quot;&gt;需求、功能、平台、Fremework..&lt;/span&gt;&lt;/font&gt;" style="text;whiteSpace=wrap;html=1;fontColor=#1A1A1A;" vertex="1" parent="1">
          <mxGeometry x="-4946.5" y="-120" width="136" height="42.5" as="geometry" />
        </mxCell>
        <mxCell id="vg9e9PBJI-c-S1dAH_wk-3" value="&lt;h1 style=&quot;margin-top: 0px;&quot;&gt;&lt;span style=&quot;font-size: 11px;&quot;&gt;網站風格及內容圖設計&lt;/span&gt;&lt;/h1&gt;" style="text;html=1;whiteSpace=wrap;overflow=hidden;rounded=0;labelBackgroundColor=none;fontColor=#1A1A1A;spacing=0;" vertex="1" parent="1">
          <mxGeometry x="-4948" y="110" width="167" height="34.5" as="geometry" />
        </mxCell>
        <mxCell id="vg9e9PBJI-c-S1dAH_wk-4" value="&lt;h1 style=&quot;margin-top: 0px;&quot;&gt;&lt;font style=&quot;font-size: 11px;&quot;&gt;網站前端框架開發&lt;/font&gt;&lt;/h1&gt;" style="text;html=1;whiteSpace=wrap;overflow=hidden;rounded=0;labelBackgroundColor=none;fontColor=#1A1A1A;spacing=0;" vertex="1" parent="1">
          <mxGeometry x="-4946.5" y="48" width="167" height="34.5" as="geometry" />
        </mxCell>
        <mxCell id="vg9e9PBJI-c-S1dAH_wk-5" value="&lt;h1 style=&quot;margin-top: 0px;&quot;&gt;&lt;font style=&quot;font-size: 11px;&quot;&gt;網站Wirefreame &amp;amp; User flow規劃及設計&lt;/font&gt;&lt;/h1&gt;" style="text;html=1;whiteSpace=wrap;overflow=hidden;rounded=0;labelBackgroundColor=none;fontColor=#1A1A1A;spacing=0;" vertex="1" parent="1">
          <mxGeometry x="-4946.5" y="-29" width="208.5" height="34.5" as="geometry" />
        </mxCell>
        <mxCell id="vg9e9PBJI-c-S1dAH_wk-6" value="&lt;h1 style=&quot;margin-top: 0px;&quot;&gt;&lt;font style=&quot;font-size: 11px;&quot;&gt;網站Functional Map規劃及設計&lt;/font&gt;&lt;/h1&gt;" style="text;html=1;whiteSpace=wrap;overflow=hidden;rounded=0;labelBackgroundColor=none;fontColor=#1A1A1A;spacing=0;" vertex="1" parent="1">
          <mxGeometry x="-4946.5" y="-77.5" width="167" height="34.5" as="geometry" />
        </mxCell>
        <mxCell id="vg9e9PBJI-c-S1dAH_wk-7" value="&lt;h1 style=&quot;margin-top: 0px;&quot;&gt;&lt;font style=&quot;font-size: 11px;&quot;&gt;網站Mockup &amp;amp; Prototype設計&lt;/font&gt;&lt;/h1&gt;" style="text;html=1;whiteSpace=wrap;overflow=hidden;rounded=0;labelBackgroundColor=none;fontColor=#1A1A1A;spacing=0;" vertex="1" parent="1">
          <mxGeometry x="-4654.25" y="46.5" width="208.5" height="34.5" as="geometry" />
        </mxCell>
        <mxCell id="vg9e9PBJI-c-S1dAH_wk-8" value="&lt;h1 style=&quot;margin-top: 0px;&quot;&gt;&lt;span style=&quot;font-size: 11px;&quot;&gt;後端程式及資料庫開發&lt;/span&gt;&lt;/h1&gt;" style="text;html=1;whiteSpace=wrap;overflow=hidden;rounded=0;labelBackgroundColor=none;fontColor=#1A1A1A;spacing=0;" vertex="1" parent="1">
          <mxGeometry x="-4950" y="161.5" width="167" height="34.5" as="geometry" />
        </mxCell>
        <mxCell id="vg9e9PBJI-c-S1dAH_wk-9" value="&lt;h1 style=&quot;margin-top: 0px;&quot;&gt;&lt;span style=&quot;font-size: 11px;&quot;&gt;後臺工具開發&lt;/span&gt;&lt;/h1&gt;" style="text;html=1;whiteSpace=wrap;overflow=hidden;rounded=0;labelBackgroundColor=none;fontColor=#1A1A1A;spacing=0;" vertex="1" parent="1">
          <mxGeometry x="-4952.25" y="307.37" width="167" height="34.5" as="geometry" />
        </mxCell>
        <mxCell id="vg9e9PBJI-c-S1dAH_wk-10" value="&lt;h1 style=&quot;margin-top: 0px;&quot;&gt;&lt;span style=&quot;font-size: 11px;&quot;&gt;Release環境建置&lt;/span&gt;&lt;/h1&gt;" style="text;html=1;whiteSpace=wrap;overflow=hidden;rounded=0;labelBackgroundColor=none;fontColor=#1A1A1A;spacing=0;" vertex="1" parent="1">
          <mxGeometry x="-4950" y="215.25" width="167" height="34.5" as="geometry" />
        </mxCell>
        <mxCell id="vg9e9PBJI-c-S1dAH_wk-11" value="&lt;font color=&quot;#666666&quot;&gt;&lt;span style=&quot;font-family: Helvetica; font-size: 10px; font-style: normal; font-variant-ligatures: normal; font-variant-caps: normal; font-weight: 400; letter-spacing: normal; orphans: 2; text-align: left; text-indent: 0px; text-transform: none; widows: 2; word-spacing: 0px; -webkit-text-stroke-width: 0px; white-space: normal; background-color: rgb(255, 255, 255); text-decoration-thickness: initial; text-decoration-style: initial; text-decoration-color: initial; float: none; display: inline !important;&quot;&gt;功能分類及定義&lt;/span&gt;&lt;/font&gt;" style="text;whiteSpace=wrap;html=1;fontColor=#1A1A1A;" vertex="1" parent="1">
          <mxGeometry x="-4948" y="-56.25" width="136" height="42.5" as="geometry" />
        </mxCell>
        <mxCell id="vg9e9PBJI-c-S1dAH_wk-12" value="&lt;font color=&quot;#666666&quot;&gt;&lt;span style=&quot;font-size: 10px;&quot;&gt;主要內容與排版架構、專注於功能與流程、與協作單位討論配置說明使用&lt;/span&gt;&lt;/font&gt;" style="text;whiteSpace=wrap;html=1;fontColor=#1A1A1A;" vertex="1" parent="1">
          <mxGeometry x="-4948" y="-7" width="234" height="42.5" as="geometry" />
        </mxCell>
        <mxCell id="vg9e9PBJI-c-S1dAH_wk-13" value="&lt;font color=&quot;#666666&quot;&gt;&lt;span style=&quot;font-size: 10px;&quot;&gt;靜態網頁: 畫面Layout、Specification、Action...&lt;/span&gt;&lt;/font&gt;" style="text;whiteSpace=wrap;html=1;fontColor=#1A1A1A;" vertex="1" parent="1">
          <mxGeometry x="-4948" y="70" width="234" height="42.5" as="geometry" />
        </mxCell>
        <mxCell id="vg9e9PBJI-c-S1dAH_wk-14" value="&lt;font color=&quot;#666666&quot;&gt;&lt;span style=&quot;font-size: 10px;&quot;&gt;網站風格、配色、內容圖片設計等出圖&lt;/span&gt;&lt;/font&gt;" style="text;whiteSpace=wrap;html=1;fontColor=#1A1A1A;" vertex="1" parent="1">
          <mxGeometry x="-4950" y="132.75" width="234" height="42.5" as="geometry" />
        </mxCell>
        <mxCell id="vg9e9PBJI-c-S1dAH_wk-15" value="&lt;font color=&quot;#666666&quot;&gt;&lt;span style=&quot;font-size: 10px;&quot;&gt;產品、下載頁資料庫及後端程式&lt;/span&gt;&lt;/font&gt;" style="text;whiteSpace=wrap;html=1;fontColor=#1A1A1A;" vertex="1" parent="1">
          <mxGeometry x="-4952.25" y="185" width="234" height="42.5" as="geometry" />
        </mxCell>
        <mxCell id="vg9e9PBJI-c-S1dAH_wk-16" value="&lt;font color=&quot;#666666&quot;&gt;&lt;span style=&quot;font-size: 10px;&quot;&gt;Azure平台、DNS、SSL、備份...建置工程&lt;/span&gt;&lt;/font&gt;" style="text;whiteSpace=wrap;html=1;fontColor=#1A1A1A;" vertex="1" parent="1">
          <mxGeometry x="-4952.25" y="237" width="234" height="42.5" as="geometry" />
        </mxCell>
        <mxCell id="vg9e9PBJI-c-S1dAH_wk-17" value="&lt;h1 style=&quot;margin-top: 0px;&quot;&gt;&lt;span style=&quot;font-size: 11px;&quot;&gt;靜態網頁後端實作&lt;/span&gt;&lt;/h1&gt;" style="text;html=1;whiteSpace=wrap;overflow=hidden;rounded=0;labelBackgroundColor=none;fontColor=#1A1A1A;spacing=0;" vertex="1" parent="1">
          <mxGeometry x="-4950" y="260.75" width="167" height="34.5" as="geometry" />
        </mxCell>
        <mxCell id="vg9e9PBJI-c-S1dAH_wk-18" value="&lt;font color=&quot;#666666&quot;&gt;&lt;span style=&quot;font-size: 10px;&quot;&gt;將靜態網頁逐步後端化&lt;/span&gt;&lt;/font&gt;" style="text;whiteSpace=wrap;html=1;fontColor=#1A1A1A;" vertex="1" parent="1">
          <mxGeometry x="-4952.25" y="284.25" width="234" height="42.5" as="geometry" />
        </mxCell>
        <mxCell id="vg9e9PBJI-c-S1dAH_wk-19" value="&lt;h1 style=&quot;margin-top: 0px;&quot;&gt;&lt;font style=&quot;font-size: 11px;&quot;&gt;網站資訊分析&lt;/font&gt;&lt;/h1&gt;&lt;p style=&quot;font-size: 10px;&quot;&gt;&lt;br&gt;&lt;/p&gt;" style="text;html=1;whiteSpace=wrap;overflow=hidden;rounded=0;labelBackgroundColor=none;fontColor=#1A1A1A;spacing=0;" vertex="1" parent="1">
          <mxGeometry x="-4653.25" y="-143" width="167" height="80" as="geometry" />
        </mxCell>
        <mxCell id="vg9e9PBJI-c-S1dAH_wk-20" value="&lt;font color=&quot;#666666&quot;&gt;&lt;font style=&quot;forced-color-adjust: none; font-family: Helvetica; font-size: 10px; font-style: normal; font-variant-ligatures: normal; font-variant-caps: normal; font-weight: 400; letter-spacing: normal; orphans: 2; text-align: left; text-indent: 0px; text-transform: none; widows: 2; word-spacing: 0px; -webkit-text-stroke-width: 0px; white-space: normal; background-color: rgb(255, 255, 255); text-decoration-thickness: initial; text-decoration-style: initial; text-decoration-color: initial;&quot;&gt;全新網站:&amp;nbsp;&lt;/font&gt;&lt;span style=&quot;font-family: Helvetica; font-size: 10px; font-style: normal; font-variant-ligatures: normal; font-variant-caps: normal; font-weight: 400; letter-spacing: normal; orphans: 2; text-align: left; text-indent: 0px; text-transform: none; widows: 2; word-spacing: 0px; -webkit-text-stroke-width: 0px; white-space: normal; background-color: rgb(255, 255, 255); text-decoration-thickness: initial; text-decoration-style: initial; text-decoration-color: initial; float: none; display: inline !important;&quot;&gt;需求、功能、平台、Fremework..&lt;/span&gt;&lt;/font&gt;" style="text;whiteSpace=wrap;html=1;fontColor=#1A1A1A;" vertex="1" parent="1">
          <mxGeometry x="-4654.25" y="-119.5" width="136" height="42.5" as="geometry" />
        </mxCell>
        <mxCell id="vg9e9PBJI-c-S1dAH_wk-21" value="&lt;h1 style=&quot;margin-top: 0px;&quot;&gt;&lt;font style=&quot;font-size: 11px;&quot;&gt;網站前端框架開發&lt;/font&gt;&lt;/h1&gt;" style="text;html=1;whiteSpace=wrap;overflow=hidden;rounded=0;labelBackgroundColor=none;fontColor=#1A1A1A;spacing=0;" vertex="1" parent="1">
          <mxGeometry x="-4658.25" y="101.5" width="167" height="34.5" as="geometry" />
        </mxCell>
        <mxCell id="vg9e9PBJI-c-S1dAH_wk-22" value="&lt;h1 style=&quot;margin-top: 0px;&quot;&gt;&lt;font style=&quot;font-size: 11px;&quot;&gt;網站Wirefreame &amp;amp; User flow規劃及設計&lt;/font&gt;&lt;/h1&gt;" style="text;html=1;whiteSpace=wrap;overflow=hidden;rounded=0;labelBackgroundColor=none;fontColor=#1A1A1A;spacing=0;" vertex="1" parent="1">
          <mxGeometry x="-4654.25" y="-28.500000000000007" width="208.5" height="34.5" as="geometry" />
        </mxCell>
        <mxCell id="vg9e9PBJI-c-S1dAH_wk-23" value="&lt;h1 style=&quot;margin-top: 0px;&quot;&gt;&lt;font style=&quot;font-size: 11px;&quot;&gt;網站Functional Map規劃及設計&lt;/font&gt;&lt;/h1&gt;" style="text;html=1;whiteSpace=wrap;overflow=hidden;rounded=0;labelBackgroundColor=none;fontColor=#1A1A1A;spacing=0;" vertex="1" parent="1">
          <mxGeometry x="-4654.25" y="-77" width="167" height="34.5" as="geometry" />
        </mxCell>
        <mxCell id="vg9e9PBJI-c-S1dAH_wk-24" value="&lt;h1 style=&quot;margin-top: 0px;&quot;&gt;&lt;span style=&quot;font-size: 11px;&quot;&gt;後端程式及資料庫開發&lt;/span&gt;&lt;/h1&gt;" style="text;html=1;whiteSpace=wrap;overflow=hidden;rounded=0;labelBackgroundColor=none;fontColor=#1A1A1A;spacing=0;" vertex="1" parent="1">
          <mxGeometry x="-4659.5" y="158.38" width="167" height="34.5" as="geometry" />
        </mxCell>
        <mxCell id="vg9e9PBJI-c-S1dAH_wk-25" value="&lt;h1 style=&quot;margin-top: 0px;&quot;&gt;&lt;span style=&quot;font-size: 11px;&quot;&gt;後臺工具開發&lt;/span&gt;&lt;/h1&gt;" style="text;html=1;whiteSpace=wrap;overflow=hidden;rounded=0;labelBackgroundColor=none;fontColor=#1A1A1A;spacing=0;" vertex="1" parent="1">
          <mxGeometry x="-4661.75" y="304.25" width="167" height="34.5" as="geometry" />
        </mxCell>
        <mxCell id="vg9e9PBJI-c-S1dAH_wk-26" value="&lt;h1 style=&quot;margin-top: 0px;&quot;&gt;&lt;span style=&quot;font-size: 11px;&quot;&gt;Release環境建置&lt;/span&gt;&lt;/h1&gt;" style="text;html=1;whiteSpace=wrap;overflow=hidden;rounded=0;labelBackgroundColor=none;fontColor=#1A1A1A;spacing=0;" vertex="1" parent="1">
          <mxGeometry x="-4659.5" y="212.13" width="167" height="34.5" as="geometry" />
        </mxCell>
        <mxCell id="vg9e9PBJI-c-S1dAH_wk-27" value="&lt;font color=&quot;#666666&quot;&gt;&lt;span style=&quot;font-family: Helvetica; font-size: 10px; font-style: normal; font-variant-ligatures: normal; font-variant-caps: normal; font-weight: 400; letter-spacing: normal; orphans: 2; text-align: left; text-indent: 0px; text-transform: none; widows: 2; word-spacing: 0px; -webkit-text-stroke-width: 0px; white-space: normal; background-color: rgb(255, 255, 255); text-decoration-thickness: initial; text-decoration-style: initial; text-decoration-color: initial; float: none; display: inline !important;&quot;&gt;功能分類及定義&lt;/span&gt;&lt;/font&gt;" style="text;whiteSpace=wrap;html=1;fontColor=#1A1A1A;" vertex="1" parent="1">
          <mxGeometry x="-4655.75" y="-55.75000000000001" width="136" height="42.5" as="geometry" />
        </mxCell>
        <mxCell id="vg9e9PBJI-c-S1dAH_wk-28" value="&lt;font color=&quot;#666666&quot;&gt;&lt;span style=&quot;font-size: 10px;&quot;&gt;主要內容與排版架構、專注於功能與流程、與協作單位討論配置說明使用&lt;/span&gt;&lt;/font&gt;" style="text;whiteSpace=wrap;html=1;fontColor=#1A1A1A;" vertex="1" parent="1">
          <mxGeometry x="-4655.75" y="-6.500000000000002" width="234" height="42.5" as="geometry" />
        </mxCell>
        <mxCell id="vg9e9PBJI-c-S1dAH_wk-29" value="&lt;font color=&quot;#666666&quot;&gt;&lt;span style=&quot;font-size: 10px;&quot;&gt;依據Mockup實作前端網頁&lt;/span&gt;&lt;/font&gt;" style="text;whiteSpace=wrap;html=1;fontColor=#1A1A1A;" vertex="1" parent="1">
          <mxGeometry x="-4659.75" y="123.5" width="234" height="42.5" as="geometry" />
        </mxCell>
        <mxCell id="vg9e9PBJI-c-S1dAH_wk-30" value="&lt;font color=&quot;#666666&quot;&gt;&lt;span style=&quot;font-size: 10px;&quot;&gt;產品、下載頁資料庫及後端程式&lt;/span&gt;&lt;/font&gt;" style="text;whiteSpace=wrap;html=1;fontColor=#1A1A1A;" vertex="1" parent="1">
          <mxGeometry x="-4661.75" y="181.88" width="234" height="42.5" as="geometry" />
        </mxCell>
        <mxCell id="vg9e9PBJI-c-S1dAH_wk-31" value="&lt;font color=&quot;#666666&quot;&gt;&lt;span style=&quot;font-size: 10px;&quot;&gt;Azure平台、DNS、SSL、備份...建置工程&lt;/span&gt;&lt;/font&gt;" style="text;whiteSpace=wrap;html=1;fontColor=#1A1A1A;" vertex="1" parent="1">
          <mxGeometry x="-4661.75" y="233.88" width="234" height="42.5" as="geometry" />
        </mxCell>
        <mxCell id="vg9e9PBJI-c-S1dAH_wk-32" value="&lt;h1 style=&quot;margin-top: 0px;&quot;&gt;&lt;span style=&quot;font-size: 11px;&quot;&gt;靜態網頁後端實作&lt;/span&gt;&lt;/h1&gt;" style="text;html=1;whiteSpace=wrap;overflow=hidden;rounded=0;labelBackgroundColor=none;fontColor=#1A1A1A;spacing=0;" vertex="1" parent="1">
          <mxGeometry x="-4659.5" y="257.63" width="167" height="34.5" as="geometry" />
        </mxCell>
        <mxCell id="vg9e9PBJI-c-S1dAH_wk-33" value="&lt;font color=&quot;#666666&quot;&gt;&lt;span style=&quot;font-size: 10px;&quot;&gt;將靜態網頁逐步後端化&lt;/span&gt;&lt;/font&gt;" style="text;whiteSpace=wrap;html=1;fontColor=#1A1A1A;" vertex="1" parent="1">
          <mxGeometry x="-4661.75" y="281.13" width="234" height="42.5" as="geometry" />
        </mxCell>
        <mxCell id="vg9e9PBJI-c-S1dAH_wk-34" value="&lt;font color=&quot;#666666&quot;&gt;&lt;span style=&quot;font-size: 10px;&quot;&gt;Layout、Specification、Action...&lt;/span&gt;&lt;/font&gt;" style="text;whiteSpace=wrap;html=1;fontColor=#1A1A1A;" vertex="1" parent="1">
          <mxGeometry x="-4655.75" y="69.25" width="234" height="42.5" as="geometry" />
        </mxCell>
      </root>
    </mxGraphModel>
  </diagram>
</mxfile>
